<svg width="500" height="500" viewBox="0 0 500 500" fill="none" xmlns="http://www.w3.org/2000/svg">
<rect width="500" height="500" fill="#38A169"/>
<path d="M396.222 124.979C378.669 120.449 359.904 116.569 340.673 113.854L276.328 267.43L153.293 298.246C162.402 309.964 173.535 316.307 196.218 325.344C231.773 339.51 269.319 339.339 305.134 320.197C312.981 316.003 320.593 310.771 327.976 304.567C353.237 283.337 375.059 251.567 393.649 212.972C402.077 195.475 409.277 177.717 415.264 160.606C417.36 154.613 419.156 149.126 420.653 144.257C421.556 141.32 422.162 139.231 422.471 138.103C423.237 135.309 421.684 132.405 418.936 131.489C417.827 131.12 415.753 130.463 412.81 129.581C407.93 128.121 402.369 126.565 396.222 124.979Z" fill="#379A65"/>
<path fill-rule="evenodd" clip-rule="evenodd" d="M143.723 291.325C135.154 279.207 126.607 254.53 124.544 230.199C121.31 192.063 132.374 156.185 161.089 127.469C167.38 121.178 174.597 115.412 182.677 110.149C210.327 92.1386 247.064 80.4795 289.393 73.895C308.584 70.9098 327.667 69.175 345.779 68.414C352.122 68.1475 357.895 68.0218 362.989 68.0027C366.061 67.9912 368.237 68.0181 369.405 68.0497C372.301 68.128 374.63 70.4567 374.708 73.3522C374.739 74.521 374.767 76.6964 374.755 79.7693C374.736 84.8627 374.61 90.6354 374.344 96.9789C373.583 115.091 371.848 134.174 368.863 153.365C362.278 195.694 350.619 232.431 332.609 260.08C327.346 268.161 321.58 275.377 315.288 281.669C286.573 310.384 250.694 321.448 212.558 318.214C188.228 316.151 163.551 307.604 151.433 299.035L205.752 244.716L265.17 244.715C268.21 244.716 270.625 242.275 270.625 239.264C270.625 236.341 268.175 233.812 265.152 233.812L216.656 233.812L259.722 190.746L288.298 190.746C291.269 190.746 293.755 188.305 293.755 185.294C293.755 182.371 291.35 179.842 288.383 179.842L270.625 179.842L307.583 142.884C309.767 140.701 309.707 137.308 307.578 135.179C305.512 133.112 302 133.048 299.873 135.174L262.915 172.132L262.915 154.374C262.915 151.422 260.475 149.002 257.464 149.002C254.541 149.002 252.012 151.446 252.012 154.46L252.012 183.036L208.946 226.102L208.946 177.606C208.946 174.475 206.505 172.132 203.494 172.132C200.571 172.132 198.042 174.575 198.042 177.588L198.042 237.006L143.723 291.325Z" fill="white"/>
<path d="M120.224 429.536C113.12 429.536 106.72 428.064 101.024 425.12C95.328 422.112 90.848 417.952 87.584 412.64C84.384 407.264 82.784 401.184 82.784 394.4C82.784 387.616 84.384 381.568 87.584 376.256C90.848 370.88 95.328 366.72 101.024 363.776C106.72 360.768 113.12 359.264 120.224 359.264C126.752 359.264 132.576 360.416 137.696 362.72C142.816 365.024 147.04 368.352 150.368 372.704L136.064 385.472C131.904 380.224 127.008 377.6 121.376 377.6C116.64 377.6 112.832 379.136 109.952 382.208C107.072 385.216 105.632 389.28 105.632 394.4C105.632 399.52 107.072 403.616 109.952 406.688C112.832 409.696 116.64 411.2 121.376 411.2C127.008 411.2 131.904 408.576 136.064 403.328L150.368 416.096C147.04 420.448 142.816 423.776 137.696 426.08C132.576 428.384 126.752 429.536 120.224 429.536Z" fill="white"/>
<path d="M223.15 360.8V428H200.493V403.232H179.565V428H156.91V360.8H179.565V384.608H200.493V360.8H223.15Z" fill="white"/>
<path d="M234.066 360.8H256.722V428H234.066V360.8Z" fill="white"/>
<path d="M327.628 428L327.436 397.376L312.844 421.952H302.86L288.268 398.432V428H267.628V360.8H286.252L308.14 396.608L329.452 360.8H348.076L348.268 428H327.628Z" fill="white"/>
<path d="M415.094 410.912V428H359.222V360.8H413.846V377.888H381.494V385.76H409.91V402.08H381.494V410.912H415.094Z" fill="white"/>
</svg>
